<?xml version="1.0" encoding="utf-8"?>
<!-- Generator: Adobe Illustrator 19.0.0, SVG Export Plug-In . SVG Version: 6.00 Build 0)  -->
<svg version="1.1" xmlns="http://www.w3.org/2000/svg" xmlns:xlink="http://www.w3.org/1999/xlink" x="0px" y="0px"
	 viewBox="0 0 232 243" style="enable-background:new 0 0 232 243;" xml:space="preserve">
<g id="curved">
	<path fill="#fff" d="M229.8,29.6c-1.5-3.5-3.6-6.6-6.2-9.3c-2.6-2.6-5.8-4.8-9.3-6.2c-3.4-1.4-7.1-2.2-10.9-2.2h-39.1v8.4h39.1
		c2.7,0,5.3,0.5,7.7,1.5c2.5,1,4.7,2.5,6.5,4.4c1.9,1.9,3.4,4.1,4.4,6.5c1,2.4,1.5,4.9,1.5,7.7v114.7c0,2.7-0.5,5.3-1.5,7.7
		c-1,2.5-2.5,4.7-4.4,6.5c-1.9,1.9-4.1,3.4-6.5,4.4c-2.4,1-5,1.5-7.7,1.5H66.3v0h-0.9l-0.9,0l-0.6,0.6l-0.6,0.6l-37.4,36.7l8.1-32.7
		l0.6-2.5l0.6-2.5l-2.6-0.1l-2.6-0.1c-2.6-0.1-5.2-0.7-7.5-1.7c-2.4-1.1-4.6-2.6-6.4-4.4c-1.8-1.8-3.3-4-4.2-6.5
		c-1-2.3-1.5-4.9-1.5-7.5l0-100.8v0h-0.1H2v100.8c0,3.8,0.7,7.4,2.1,10.7c1.4,3.4,3.5,6.5,6,9.2c2.2,2.3,4.9,4.2,7.8,5.7
		c2.1,1.1,4.4,1.9,6.8,2.4l-10.5,42.5l-1.8,7.2l-1.8,7.2l5.3-5.2l5.3-5.2L68,183.7h135.4c3.8,0,7.5-0.8,10.9-2.2
		c3.5-1.5,6.7-3.6,9.3-6.2c2.6-2.6,4.8-5.8,6.2-9.3c1.4-3.4,2.2-7,2.2-10.9V40.5C232,36.7,231.2,33,229.8,29.6z"/>
</g>
<g id="2">
	<path fill="#5c458f" d="M104.1,162.1h0.2h0.5h66.8c2.3,2.2,5.1,3.3,8.4,3.3c3.6,0,6.6-1.2,9.1-3.7c2.5-2.5,3.7-5.5,3.7-9
		c0-3.5-1.2-6.5-3.7-8.9c-2.5-2.4-5.5-3.6-9.1-3.6c-3.5,0-6.5,1.2-8.9,3.6l0,0h-41.6l40.5-41.4c4.6-4.6,7.6-9.2,9-13.8
		c1.4-4.6,2.2-9.5,2.2-14.7c0-5.6-1-10.5-2.9-14.5c-2-4-4.7-7.3-8.1-9.8c-3.4-2.5-7.5-4.4-12.1-5.5c-4.6-1.1-9.5-1.7-14.8-1.7
		c-8,0-15.3,1.7-21.9,5c-0.5,0.2-1,0.5-1.4,0.8c-1.2-0.4-2.5-0.5-3.9-0.5c-3.5,0-6.5,1.2-8.9,3.7c-2.4,2.4-3.6,5.4-3.6,8.9
		c0,3.5,1.2,6.5,3.6,9c2.4,2.5,5.4,3.7,8.9,3.7c3.6,0,6.6-1.2,9.1-3.7c1.2-1.2,2-2.5,2.7-3.9c0.7-0.5,1.4-0.9,2.2-1.3
		c3.7-2,7.9-3,12.8-3c5.4,0,9.8,1.1,13.1,3.3c3.3,2.2,5,5.4,5,9.7c0,4-0.6,7.6-1.9,10.6c-1.3,3-3.4,6.1-6.5,9.1l-43.3,41.4
		c-2.6,2.6-4.3,5.5-5.1,8.7c0,0.1-0.1,0.2-0.1,0.3V162.1z"/>
</g>
<g id="i">
	<polygon fill="#f05e21" points="89.8,81.5 53.8,81.5 53.8,81.6 53.8,81.9 53.8,95 53.8,98.9 53.8,100.2 69.3,100.2 69.3,103.5 
		69.3,140.5 69.3,143.6 53.3,143.6 53.3,162.3 104.1,162.3 104.1,162.1 104.1,162.1 104.1,162.1 104.1,143.9 104.1,143.9 
		104.1,143.6 90,143.6 90,140.5 90,81.9 89.8,81.9 89.8,81.6 	"/>
	<path fill="#f05e21" d="M90.8,60.4c0-3.5-1.2-6.5-3.7-8.9c-2.5-2.4-5.5-3.6-9.1-3.6c-3.5,0-6.5,1.2-8.9,3.6c-2.4,2.4-3.6,5.4-3.6,8.9
		c0,3.5,1.2,6.5,3.6,9c2.4,2.5,5.4,3.7,8.9,3.7c3.6,0,6.6-1.2,9.1-3.7C89.6,66.9,90.8,63.9,90.8,60.4z"/>
</g>
<g id="browser">
	<g>
		<path fill="#fff" d="M3.6,1.2h3.8v15h0.1c0.7-1.1,1.7-1.9,2.9-2.5c1.3-0.6,2.6-0.9,4.1-0.9c1.6,0,3,0.3,4.2,0.8
			c1.3,0.5,2.3,1.3,3.2,2.2c0.9,1,1.6,2.1,2.1,3.4c0.5,1.3,0.7,2.7,0.7,4.2c0,1.5-0.2,2.9-0.7,4.2c-0.5,1.3-1.2,2.4-2.1,3.4
			c-0.9,1-2,1.7-3.2,2.3c-1.3,0.5-2.7,0.8-4.2,0.8c-1.4,0-2.7-0.3-4-0.9c-1.3-0.6-2.3-1.4-3.1-2.5H7.5v2.9H3.6V1.2z M14.1,30.4
			c1,0,2-0.2,2.8-0.5c0.8-0.4,1.5-0.8,2.1-1.5c0.6-0.6,1-1.4,1.3-2.2c0.3-0.9,0.5-1.8,0.5-2.8s-0.2-2-0.5-2.8
			c-0.3-0.9-0.8-1.6-1.3-2.2c-0.6-0.6-1.3-1.1-2.1-1.5c-0.8-0.4-1.8-0.5-2.8-0.5c-1,0-2,0.2-2.8,0.5c-0.8,0.4-1.5,0.8-2.1,1.5
			c-0.6,0.6-1,1.4-1.3,2.2c-0.3,0.9-0.5,1.8-0.5,2.8s0.2,2,0.5,2.8c0.3,0.9,0.8,1.6,1.3,2.2c0.6,0.6,1.3,1.1,2.1,1.5
			C12.2,30.3,13.1,30.4,14.1,30.4z"/>
		<path fill="#fff" d="M28,13.3h3.8v3.1h0.1c0.3-0.5,0.6-1,1-1.5c0.4-0.4,0.9-0.8,1.4-1.1c0.5-0.3,1.1-0.6,1.7-0.7
			c0.6-0.2,1.3-0.3,1.9-0.3c0.6,0,1.2,0.1,1.7,0.3l-0.2,4.1c-0.3-0.1-0.6-0.2-0.9-0.2c-0.3-0.1-0.6-0.1-0.9-0.1
			c-1.9,0-3.3,0.5-4.3,1.6c-1,1.1-1.5,2.7-1.5,4.9v10.2H28V13.3z"/>
		<path fill="#fff" d="M41.1,23.4c0-1.5,0.3-2.9,0.8-4.1c0.6-1.3,1.3-2.4,2.3-3.4c1-1,2.1-1.7,3.4-2.3c1.3-0.6,2.7-0.8,4.2-0.8
			c1.5,0,2.9,0.3,4.2,0.8c1.3,0.6,2.4,1.3,3.4,2.3c1,1,1.7,2.1,2.3,3.4c0.6,1.3,0.8,2.7,0.8,4.1c0,1.5-0.3,2.9-0.8,4.2
			c-0.6,1.3-1.3,2.4-2.3,3.4c-1,1-2.1,1.7-3.4,2.3c-1.3,0.6-2.7,0.8-4.2,0.8c-1.5,0-2.9-0.3-4.2-0.8c-1.3-0.6-2.4-1.3-3.4-2.3
			c-1-1-1.7-2.1-2.3-3.4C41.4,26.3,41.1,24.9,41.1,23.4z M45.2,23.4c0,1,0.2,2,0.5,2.8c0.3,0.9,0.8,1.6,1.3,2.2
			c0.6,0.6,1.3,1.1,2.1,1.5c0.8,0.4,1.8,0.5,2.8,0.5s2-0.2,2.8-0.5c0.8-0.4,1.5-0.8,2.1-1.5c0.6-0.6,1-1.4,1.3-2.2
			c0.3-0.9,0.5-1.8,0.5-2.8s-0.2-2-0.5-2.8c-0.3-0.9-0.8-1.6-1.3-2.2c-0.6-0.6-1.3-1.1-2.1-1.5c-0.8-0.4-1.8-0.5-2.8-0.5
			s-2,0.2-2.8,0.5c-0.8,0.4-1.5,0.8-2.1,1.5c-0.6,0.6-1,1.4-1.3,2.2C45.4,21.4,45.2,22.4,45.2,23.4z"/>
		<path fill="#fff" d="M63.3,13.3h4.3l4.5,15.1h0.1l4.8-15.1h4.1l5.1,15.1h0.1l4.3-15.1h4.1l-6.5,20.2h-3.9l-5.4-15.1H79l-4.9,15.1
			H70L63.3,13.3z"/>
		<path fill="#fff" d="M107.2,18.3c-0.5-0.6-1-1-1.7-1.4c-0.7-0.4-1.5-0.6-2.5-0.6c-0.9,0-1.7,0.2-2.4,0.6c-0.7,0.4-1,0.9-1,1.7
			c0,0.6,0.2,1.1,0.6,1.5c0.4,0.4,0.8,0.7,1.4,0.9c0.5,0.2,1.1,0.4,1.7,0.5c0.6,0.1,1.1,0.2,1.5,0.3c0.8,0.2,1.6,0.4,2.3,0.7
			c0.7,0.3,1.4,0.7,1.9,1.1c0.5,0.5,0.9,1,1.2,1.7c0.3,0.7,0.4,1.5,0.4,2.4c0,1.1-0.2,2.1-0.7,2.9c-0.5,0.8-1.1,1.5-1.9,2
			c-0.8,0.5-1.6,0.9-2.6,1.1c-1,0.2-2,0.3-3,0.3c-1.7,0-3.2-0.3-4.4-0.8c-1.3-0.5-2.4-1.5-3.4-2.8l2.9-2.4c0.6,0.6,1.3,1.2,2.1,1.7
			c0.8,0.5,1.7,0.7,2.8,0.7c0.5,0,1,0,1.5-0.1c0.5-0.1,0.9-0.3,1.3-0.5c0.4-0.2,0.7-0.5,0.9-0.8c0.2-0.3,0.4-0.7,0.4-1.1
			c0-0.6-0.2-1-0.5-1.4c-0.4-0.4-0.8-0.7-1.3-0.9c-0.5-0.2-1-0.4-1.6-0.5c-0.6-0.1-1-0.2-1.5-0.3c-0.8-0.2-1.6-0.4-2.3-0.7
			c-0.7-0.3-1.4-0.6-2-1c-0.6-0.4-1-1-1.4-1.6c-0.3-0.7-0.5-1.5-0.5-2.4c0-1.1,0.2-2,0.7-2.8c0.4-0.8,1-1.4,1.8-1.9
			c0.7-0.5,1.6-0.9,2.5-1.2c0.9-0.3,1.9-0.4,2.8-0.4c1.4,0,2.7,0.3,3.9,0.8c1.3,0.5,2.2,1.4,3,2.6L107.2,18.3z"/>
		<path fill="#fff" d="M116.6,24.8c0,0.9,0.2,1.7,0.6,2.4c0.4,0.7,0.9,1.3,1.5,1.9c0.6,0.5,1.4,0.9,2.2,1.2c0.8,0.3,1.7,0.4,2.6,0.4
			c1.2,0,2.2-0.3,3.1-0.8s1.7-1.3,2.4-2.2l2.9,2.2c-2.1,2.8-5.1,4.1-9,4.1c-1.6,0-3-0.3-4.3-0.8c-1.3-0.5-2.4-1.3-3.3-2.2
			s-1.6-2.1-2.1-3.4c-0.5-1.3-0.7-2.7-0.7-4.2c0-1.5,0.3-2.9,0.8-4.2c0.5-1.3,1.3-2.4,2.2-3.4c0.9-1,2-1.7,3.3-2.2
			c1.3-0.5,2.7-0.8,4.2-0.8c1.8,0,3.3,0.3,4.5,0.9c1.2,0.6,2.3,1.4,3.1,2.5c0.8,1,1.4,2.2,1.7,3.4c0.4,1.3,0.5,2.6,0.5,3.9v1.4
			H116.6z M128.8,21.7c0-0.9-0.2-1.6-0.4-2.3c-0.2-0.7-0.6-1.3-1.1-1.9c-0.5-0.5-1.1-0.9-1.8-1.2c-0.7-0.3-1.6-0.4-2.5-0.4
			c-0.9,0-1.8,0.2-2.6,0.5c-0.8,0.4-1.4,0.8-2,1.4c-0.5,0.6-1,1.2-1.3,1.9c-0.3,0.7-0.4,1.4-0.4,2.1H128.8z"/>
		<path fill="#fff" d="M135.8,13.3h3.8v3.1h0.1c0.3-0.5,0.6-1,1-1.5c0.4-0.4,0.9-0.8,1.4-1.1c0.5-0.3,1.1-0.6,1.7-0.7
			c0.6-0.2,1.3-0.3,1.9-0.3c0.6,0,1.2,0.1,1.7,0.3l-0.2,4.1c-0.3-0.1-0.6-0.2-0.9-0.2c-0.3-0.1-0.6-0.1-0.9-0.1
			c-1.9,0-3.3,0.5-4.3,1.6c-1,1.1-1.5,2.7-1.5,4.9v10.2h-3.8V13.3z"/>
	</g>
</g>
</svg>
